<?xml version="1.0" encoding="UTF-8"?>
<!DOCTYPE svg PUBLIC "-//W3C//DTD SVG 1.1//EN" "http://www.w3.org/Graphics/SVG/1.1/DTD/svg11.dtd">
<svg xmlns="http://www.w3.org/2000/svg" version="1.1" width="150px" height="170px" style="shape-rendering:geometricPrecision; text-rendering:geometricPrecision; image-rendering:optimizeQuality; fill-rule:evenodd; clip-rule:evenodd" xmlns:xlink="http://www.w3.org/1999/xlink">
<g><path style="opacity:0.95" fill="#00bdcc" d="M 55.5,-0.5 C 56.5,-0.5 57.5,-0.5 58.5,-0.5C 56.0976,5.68425 55.9309,12.0176 58,18.5C 61.2107,29.4657 65.2107,40.1323 70,50.5C 69.6322,56.2573 67.7988,61.5906 64.5,66.5C 61.8061,62.4455 59.6394,58.1122 58,53.5C 54.7103,57.9124 51.5437,62.4124 48.5,67C 53.5709,67.9241 58.5709,69.0907 63.5,70.5C 62,73.5 60.5,76.5 59,79.5C 53.2552,79.7456 47.4218,79.9123 41.5,80C 39.6975,83.4598 37.5309,86.6264 35,89.5C 31.3259,88.4131 27.8259,86.9131 24.5,85C 33.0392,69.1398 42.3725,53.8065 52.5,39C 48.7652,30.7288 46.4319,22.0621 45.5,13C 45.3291,9.87068 46.1624,7.03735 48,4.5C 50.8239,3.1819 53.3239,1.51523 55.5,-0.5 Z"/></g>
<g><path style="opacity:0.917" fill="#00bdcc" d="M 60.5,2.5 C 65.8084,3.99059 69.8084,7.15726 72.5,12C 69.979,14.6887 67.3123,17.1887 64.5,19.5C 63.1861,18.6872 62.0195,17.6872 61,16.5C 59.4909,11.8098 59.3242,7.14313 60.5,2.5 Z"/></g>
<g><path style="opacity:0.952" fill="#00bdcc" d="M 80.5,12.5 C 81.2506,11.4265 82.2506,11.2599 83.5,12C 86.4185,13.7088 89.2518,15.5421 92,17.5C 93.0653,20.3754 93.5653,23.3754 93.5,26.5C 93.1394,30.1999 92.9727,33.8665 93,37.5C 101.544,50.7507 109.71,64.2507 117.5,78C 112.034,77.5174 106.7,76.1841 101.5,74C 97,66.8333 92.5,59.6667 88,52.5C 85.0959,58.4787 82.5959,64.6454 80.5,71C 85.5007,82.1675 91.1673,93.0008 97.5,103.5C 92.404,104.519 87.404,104.019 82.5,102C 79.3738,96.9152 76.3738,91.7486 73.5,86.5C 71,90.8333 68.5,95.1667 66,99.5C 62.1512,98.2723 58.3179,96.939 54.5,95.5C 68.3023,72.0921 77.969,47.0921 83.5,20.5C 83.1583,18.1332 82.6583,15.7999 82,13.5C 81.6174,12.944 81.1174,12.6107 80.5,12.5 Z"/></g>
<g><path style="opacity:0.919" fill="#00bdcc" d="M 75.5,14.5 C 76.8221,14.33 77.9887,14.6634 79,15.5C 80.0887,22.1212 79.2554,28.4545 76.5,34.5C 75.2011,33.91 74.3678,32.91 74,31.5C 72.6912,33.9757 70.8579,35.9757 68.5,37.5C 66.8358,33.5097 65.1691,29.5097 63.5,25.5C 66.9208,21.0739 70.9208,17.4072 75.5,14.5 Z"/></g>
<g><path style="opacity:0.912" fill="#00bdcc" d="M 18.5,67.5 C 22.5138,67.3345 26.5138,67.5012 30.5,68C 28.2907,71.586 25.9574,75.086 23.5,78.5C 18.2105,80.5699 13.7105,79.5699 10,75.5C 9.33333,74.1667 9.33333,72.8333 10,71.5C 12.7383,69.7112 15.5716,68.3779 18.5,67.5 Z"/></g>
<g><path style="opacity:0.953" fill="#00bdcc" d="M 149.5,103.5 C 149.5,106.167 149.5,108.833 149.5,111.5C 147.995,116.995 144.328,119.995 138.5,120.5C 140.694,128.565 143.194,136.565 146,144.5C 147.16,149.434 147.66,154.434 147.5,159.5C 142.736,158.861 138.903,156.528 136,152.5C 133.286,142.358 129.786,132.524 125.5,123C 119.759,122.572 114.092,122.239 108.5,122C 115.724,132.946 123.558,143.446 132,153.5C 136.471,158.641 141.971,162.141 148.5,164C 145.593,165.609 142.927,167.442 140.5,169.5C 138.167,169.5 135.833,169.5 133.5,169.5C 127.37,165.325 121.87,160.325 117,154.5C 108.465,143.264 100.298,131.764 92.5,120C 81.3003,118.793 70.3003,116.627 59.5,113.5C 48.8539,130.98 36.8539,147.48 23.5,163C 20.598,165.417 17.598,167.584 14.5,169.5C 11.8333,169.5 9.16667,169.5 6.5,169.5C 4.66439,167.412 2.33105,166.079 -0.5,165.5C -0.5,164.833 -0.5,164.167 -0.5,163.5C 5.58232,162.205 10.749,159.205 15,154.5C 26.8518,140.632 37.3518,125.799 46.5,110C 40.8634,108.566 35.3634,106.732 30,104.5C 29.228,104.645 28.5613,104.978 28,105.5C 20.2194,121.175 14.2194,137.508 10,154.5C 7.21887,157.805 3.71887,159.472 -0.5,159.5C -0.5,154.5 -0.5,149.5 -0.5,144.5C 4.29558,129.133 10.2956,114.133 17.5,99.5C 12.1983,97.2641 7.69826,93.9308 4,89.5C 2.00283,83.3076 2.50283,77.3076 5.5,71.5C 5.8969,74.0948 7.06357,76.7615 9,79.5C 15.8065,84.8221 23.3065,88.9887 31.5,92C 61.1942,102.972 91.8609,109.139 123.5,110.5C 129.928,110.367 136.262,109.534 142.5,108C 145.202,106.988 147.535,105.488 149.5,103.5 Z"/></g>
<g><path style="opacity:0.95" fill="#00bdcc" d="M 85.5,73.5 C 105.782,77.425 124.782,84.5916 142.5,95C 148.213,100.377 147.047,103.877 139,105.5C 135.928,103.713 132.761,102.047 129.5,100.5C 129.167,100.667 128.833,100.833 128.5,101C 129.861,102.584 130.528,104.418 130.5,106.5C 126.116,106.826 121.783,106.492 117.5,105.5C 115.547,101.091 113.213,96.9242 110.5,93C 104.585,90.8615 98.585,89.0281 92.5,87.5C 89.6073,83.0479 87.2739,78.3812 85.5,73.5 Z"/></g>
</svg>
